<svg width="128" height="128" viewBox="0 0 128 128" fill="none" xmlns="http://www.w3.org/2000/svg">
<rect width="128" height="128" fill="#333333"/>
<path d="M112.866 60.8767H89.6085V20.126C89.6085 17.8472 87.758 16 85.475 16H42.525C40.242 16 38.3915 17.8472 38.3915 20.126V60.8767H15.1336C12.8509 60.8767 11 62.7239 11 65.0028V107.874C11 110.152 12.8506 112 15.1336 112H112.866C115.149 112 117 110.152 117 107.874V65.0028C117 62.7236 115.149 60.8767 112.866 60.8767ZM46.6586 24.2521H81.3414V60.8767H46.659L46.6586 24.2521ZM59.8666 103.748H19.2671V69.1288H59.8666V103.748ZM108.733 103.748H68.1337V69.1288H108.733V103.748Z" fill="white"/>
<path d="M67.0682 30.8727C66.6142 29.6455 65.4278 28.821 64.1175 28.821C62.8191 28.821 61.6373 29.6346 61.1766 30.8459L53.7143 50.4552C53.3822 51.3276 53.5009 52.3073 54.0319 53.0754C54.5629 53.8438 55.438 54.3022 56.3732 54.3022C57.5539 54.3022 58.5944 53.5927 59.0233 52.4949L60.274 49.2939H67.7797L68.928 52.4364C69.3357 53.5525 70.4097 54.3026 71.6003 54.3026H71.6582C72.5885 54.3026 73.4608 53.848 73.9921 53.0863C74.5235 52.3246 74.6489 51.3502 74.3263 50.4795L67.0682 30.8727ZM61.9659 44.4135L63.9044 38.0252L66.0998 44.4135H61.9659Z" fill="white"/>
<path d="M33.9152 98.8637H39.2069C44.3141 98.8637 47.3634 96.1381 47.3634 91.5726C47.3631 89.0776 46.2746 86.3675 43.8732 85.3779C44.9645 84.1853 45.3747 82.4326 45.3747 81.0202C45.3747 76.3701 42.79 74.0127 37.6916 74.0127H33.9152C32.5091 74.0127 31.3654 75.1542 31.3654 76.5578V96.319C31.3654 97.7222 32.5091 98.8637 33.9152 98.8637ZM37.1069 78.8299H37.1553C39.1659 78.8299 39.9491 79.5324 39.9491 81.3348C39.9491 83.3033 39.2888 83.9035 37.1238 83.9035H37.1069V78.8299ZM37.1069 88.5317H37.3128C40.2321 88.5317 41.6216 88.9302 41.6216 91.1946C41.6216 93.6057 40.2448 94.0465 37.5336 94.0465H37.1065L37.1069 88.5317Z" fill="white"/>
<path d="M91.7598 99.4939C93.1132 99.4939 94.4448 99.2245 95.9488 98.6458C97.0172 98.2349 97.7075 97.2373 97.7075 96.1024C97.7075 95.2007 97.2825 94.3914 96.5416 93.8825C95.7912 93.3666 94.8296 93.2555 93.9682 93.5838C93.2715 93.8493 92.5709 93.9841 91.8862 93.9841C87.8657 93.9841 85.4633 90.1959 85.4633 86.5332C85.4633 82.8297 87.7255 78.8934 91.918 78.8934C92.6183 78.8934 93.3174 79.02 93.9965 79.27C94.8564 79.5867 95.8131 79.4668 96.5551 78.9505C97.2878 78.4406 97.7079 77.6351 97.7079 76.7401V76.6974C97.7079 75.5806 97.003 74.5593 95.9538 74.1562C94.6186 73.6431 93.2397 73.3832 91.8548 73.3832C84.9627 73.3832 79.564 79.2009 79.564 86.6277C79.564 93.722 85.0351 99.4939 91.7598 99.4939Z" fill="white"/>
</svg>
